<?xml version="1.0" encoding="UTF-8" standalone="no"?><!-- Generator: Gravit.io --><svg xmlns="http://www.w3.org/2000/svg" xmlns:xlink="http://www.w3.org/1999/xlink" style="isolation:isolate" viewBox="2689.309 -413 1884.979 446.514" width="1884.979pt" height="446.514pt"><defs><clipPath id="_clipPath_HgucPNyHkKuLmOxwY1kYYRHagLVySCWN"><rect x="2689.309" y="-413" width="1884.979" height="446.514"/></clipPath></defs><g clip-path="url(#_clipPath_HgucPNyHkKuLmOxwY1kYYRHagLVySCWN)"><g><g><g><g><g><path d=" M 2890.077 33.11 C 2884.52 32.779 2878.91 32.236 2873.403 31.496 C 2867.929 30.76 2864.089 25.726 2864.825 20.252 C 2865.562 14.778 2870.593 10.945 2876.069 11.674 C 2881.087 12.349 2886.201 12.844 2891.266 13.146 C 2960.019 17.237 3025.934 -12.994 3067.588 -67.722 C 3077.798 -81.137 3086.248 -95.592 3092.829 -110.796 C 3102.274 -132.615 3107.872 -155.978 3109.303 -180.025 C 3112.056 -226.29 3099.028 -272.591 3072.616 -310.398 C 3069.454 -314.926 3070.561 -321.16 3075.089 -324.323 C 3079.617 -327.486 3085.851 -326.378 3089.011 -321.852 C 3117.991 -280.368 3132.288 -229.577 3129.268 -178.835 C 3126.603 -134.056 3110.778 -91.446 3083.504 -55.61 C 3037.802 4.432 2965.494 37.598 2890.077 33.11 Z " fill="rgb(0,0,0)"/><path d=" M 2841.932 21.002 C 2840.931 21.002 2839.913 20.851 2838.909 20.532 L 2837.913 20.214 C 2832.656 18.521 2829.767 12.887 2831.46 7.63 C 2833.153 2.373 2838.789 -0.516 2844.044 1.177 L 2844.951 1.467 C 2850.216 3.135 2853.131 8.756 2851.463 14.021 C 2850.112 18.281 2846.175 21.002 2841.932 21.002 Z " fill="rgb(0,0,0)"/><path d=" M 2803.761 6.177 C 2802 6.177 2800.217 5.711 2798.599 4.735 C 2795.487 2.855 2792.379 0.875 2789.362 -1.152 C 2763.462 -18.535 2741.877 -40.731 2725.466 -66.128 C 2702.179 -102.165 2689.309 -144.645 2689.309 -188.963 C 2689.309 -233.822 2702.576 -277.298 2727.674 -314.692 C 2757.134 -358.584 2801.263 -390.892 2851.933 -405.665 C 2857.234 -407.213 2862.786 -404.166 2864.332 -398.864 C 2865.878 -393.562 2862.833 -388.01 2857.531 -386.465 C 2811.353 -373.002 2771.133 -343.554 2744.281 -303.546 C 2721.403 -269.461 2709.31 -229.839 2709.31 -188.964 C 2709.31 -120.09 2743.403 -56.087 2800.51 -17.758 C 2803.264 -15.908 2806.101 -14.101 2808.942 -12.385 C 2813.669 -9.529 2815.186 -3.382 2812.331 1.345 C 2810.451 4.457 2807.147 6.177 2803.761 6.177 Z " fill="rgb(0,0,0)"/><path d=" M 2890.392 -392.947 C 2885.111 -392.947 2880.696 -397.084 2880.414 -402.42 C 2880.122 -407.935 2884.357 -412.642 2889.872 -412.934 L 2890.914 -412.987 C 2896.425 -413.261 2901.119 -409 2901.386 -403.483 C 2901.653 -397.967 2897.398 -393.278 2891.882 -393.011 L 2890.928 -392.963 C 2890.749 -392.952 2890.569 -392.947 2890.392 -392.947 Z " fill="rgb(0,0,0)"/><path d=" M 2848.902 -239.434 C 2843.621 -239.434 2839.206 -243.571 2838.924 -248.907 C 2838.632 -254.422 2842.867 -259.129 2848.382 -259.421 L 2849.424 -259.474 C 2854.935 -259.748 2859.629 -255.487 2859.896 -249.97 C 2860.163 -244.454 2855.908 -239.765 2850.392 -239.498 L 2849.438 -239.45 C 2849.259 -239.439 2849.079 -239.434 2848.902 -239.434 Z " fill="rgb(0,0,0)"/><path d=" M 2922.28 -392.947 C 2916.999 -392.947 2912.584 -397.084 2912.302 -402.42 C 2912.01 -407.935 2916.245 -412.642 2921.76 -412.934 L 2922.802 -412.987 C 2928.313 -413.261 2933.007 -409 2933.274 -403.483 C 2933.541 -397.967 2929.286 -393.278 2923.77 -393.011 L 2922.816 -392.963 C 2922.637 -392.952 2922.457 -392.947 2922.28 -392.947 Z " fill="rgb(0,0,0)"/></g><g><path d=" M 2915.288 -31.459 C 2828.55 -31.459 2757.983 -102.026 2757.983 -188.765 C 2757.983 -275.503 2828.55 -346.07 2915.288 -346.07 C 2920.811 -346.07 2925.288 -341.593 2925.288 -336.07 C 2925.288 -330.547 2920.811 -326.07 2915.288 -326.07 C 2839.578 -326.07 2777.983 -264.475 2777.983 -188.765 C 2777.983 -113.055 2839.578 -51.459 2915.288 -51.459 C 2920.811 -51.459 2925.288 -46.982 2925.288 -41.459 C 2925.288 -35.937 2920.811 -31.459 2915.288 -31.459 Z " fill="rgb(0,0,0)"/></g><g><path d=" M 3012.775 -62.635 C 3009.24 -62.019 3005.49 -63.332 3003.141 -66.366 C 2999.762 -70.733 3000.561 -77.014 3004.928 -80.395 C 3045.334 -111.673 3064.992 -162.344 3056.231 -212.636 C 3050.757 -244.058 3036.568 -270.124 3012.42 -291.656 C 3002.047 -300.906 3017.299 -314.553 3029.481 -302.964 C 3054.038 -279.601 3070.101 -249.553 3075.934 -216.068 C 3085.971 -158.454 3063.453 -100.407 3017.171 -64.579 C 3015.839 -63.548 3014.327 -62.905 3012.775 -62.635 Z " fill="rgb(0,0,0)"/></g><g><path d=" M 2915.212 -90.365 C 2899.218 -90.365 2883.257 -94.361 2869.056 -101.922 C 2836.878 -119.053 2816.889 -152.359 2816.889 -188.842 C 2816.889 -200.522 2818.953 -211.996 2823.023 -222.946 C 2824.948 -228.122 2830.704 -230.759 2835.881 -228.835 C 2841.058 -226.911 2843.694 -221.154 2841.77 -215.978 C 2838.531 -207.265 2836.889 -198.136 2836.889 -188.843 C 2836.889 -159.767 2852.816 -133.226 2878.455 -119.577 C 2889.774 -113.551 2902.485 -110.366 2915.213 -110.366 C 2944.289 -110.366 2970.83 -126.293 2984.479 -151.931 C 2990.506 -163.251 2993.692 -175.962 2993.692 -188.69 C 2993.692 -217.765 2977.764 -244.306 2952.126 -257.956 C 2940.804 -263.982 2947.319 -283.172 2961.524 -275.611 C 2993.702 -258.48 3013.692 -225.174 3013.692 -188.691 C 3013.692 -172.697 3009.694 -156.736 3002.133 -142.534 C 2985.001 -110.354 2951.696 -90.365 2915.212 -90.365 Z " fill="rgb(0,0,0)"/></g></g></g></g></g><text transform="matrix(1,0,0,1,3227.288,-92.243)" style="font-family:'IBM Plex Sans';font-weight:400;font-size:260px;font-style:normal;fill:#000000;stroke:none;">Metrix Labs</text></g></svg>