<?xml version="1.0" encoding="UTF-8" standalone="no"?><!-- Generator: Gravit.io --><svg xmlns="http://www.w3.org/2000/svg" xmlns:xlink="http://www.w3.org/1999/xlink" style="isolation:isolate" viewBox="12751.136 -8480.756 4420 4514" width="4420pt" height="4514pt"><defs><clipPath id="_clipPath_ZjdSKYgQwTztj6Ox5Isag36Q4MrzyE94"><rect x="12268.136" y="-8954.756" width="5386.139" height="5461.458"/></clipPath></defs><g clip-path="url(#_clipPath_ZjdSKYgQwTztj6Ox5Isag36Q4MrzyE94)"><g><g><g><g><g><path d=" M 14882.883 -3967.31 C 14826.373 -3967.105 14769.196 -3969.02 14712.935 -3972.999 C 14657.009 -3976.949 14614.88 -4025.491 14618.84 -4081.417 C 14622.8 -4137.343 14671.322 -4179.401 14727.257 -4175.512 C 14778.533 -4171.88 14830.654 -4170.14 14882.159 -4170.326 C 15581.297 -4172.852 16229.72 -4521.282 16616.707 -5102.361 C 16711.557 -5244.79 16787.911 -5396.631 16844.86 -5554.869 C 16926.588 -5781.957 16968.352 -6022.22 16967.469 -6266.746 C 16965.769 -6737.207 16804.165 -7197.933 16512.413 -7564.059 C 16477.478 -7607.907 16484.708 -7671.773 16528.556 -7706.708 C 16572.403 -7741.644 16636.269 -7734.414 16671.184 -7690.576 C 16991.305 -7288.851 17168.631 -6783.446 17170.495 -6267.47 C 17172.141 -5812.114 17039.074 -5370.32 16785.691 -4989.829 C 16361.106 -4352.338 15649.788 -3970.081 14882.883 -3967.31 Z " fill="rgb(0,0,0)"/><path d=" M 14300.164 -4059.254 C 14290.003 -4059.254 14279.669 -4060.787 14269.478 -4064.025 L 14259.367 -4067.253 C 14206.004 -4084.439 14176.678 -4141.629 14193.864 -4194.992 C 14211.049 -4248.355 14268.26 -4277.681 14321.603 -4260.496 L 14330.809 -4257.552 C 14384.254 -4240.621 14413.844 -4183.562 14396.912 -4130.118 C 14383.198 -4086.875 14343.234 -4059.254 14300.164 -4059.254 Z " fill="rgb(0,0,0)"/><path d=" M 13913.691 -4225.734 C 13895.816 -4225.734 13877.717 -4230.465 13861.292 -4240.372 C 13829.703 -4259.455 13798.154 -4279.554 13767.529 -4300.13 C 13504.622 -4476.586 13285.515 -4701.898 13118.925 -4959.699 C 12882.544 -5325.501 12751.901 -5756.714 12751.901 -6206.579 C 12751.901 -6661.939 12886.573 -7103.259 13141.34 -7482.841 C 13440.386 -7928.384 13888.334 -8256.339 14402.68 -8406.299 C 14456.49 -8422.012 14512.848 -8391.082 14528.541 -8337.262 C 14544.234 -8283.442 14513.325 -8227.085 14459.505 -8211.401 C 13990.757 -8074.74 13582.488 -7775.816 13309.916 -7369.699 C 13077.684 -7023.706 12954.929 -6621.508 12954.929 -6206.59 C 12954.929 -5507.457 13301.004 -4857.769 13880.691 -4468.696 C 13908.646 -4449.917 13937.444 -4431.574 13966.283 -4414.155 C 14014.266 -4385.164 14029.665 -4322.766 14000.684 -4274.783 C 13981.601 -4243.194 13948.062 -4225.734 13913.691 -4225.734 Z " fill="rgb(0,0,0)"/><path d=" M 14793.068 -8277.207 C 14739.461 -8277.207 14694.645 -8319.201 14691.783 -8373.367 C 14688.819 -8429.349 14731.808 -8477.129 14787.79 -8480.093 L 14798.367 -8480.631 C 14854.309 -8483.412 14901.957 -8440.159 14904.667 -8384.157 C 14907.378 -8328.165 14864.185 -8280.567 14808.193 -8277.857 L 14798.509 -8277.369 C 14796.692 -8277.258 14794.865 -8277.207 14793.068 -8277.207 Z " fill="rgb(0,0,0)"/><path d=" M 14290.379 -6714 C 14236.772 -6714 14191.956 -6755.994 14189.094 -6810.159 C 14186.129 -6866.142 14229.119 -6913.922 14285.101 -6916.886 L 14295.678 -6917.424 C 14351.62 -6920.205 14399.268 -6876.952 14401.978 -6820.95 C 14404.688 -6764.957 14361.496 -6717.36 14305.504 -6714.65 L 14295.82 -6714.162 C 14294.003 -6714.051 14292.176 -6714 14290.379 -6714 Z " fill="rgb(0,0,0)"/><path d=" M 15116.768 -8277.207 C 15063.161 -8277.207 15018.344 -8319.201 15015.482 -8373.367 C 15012.518 -8429.349 15055.507 -8477.129 15111.489 -8480.093 L 15122.066 -8480.631 C 15178.008 -8483.412 15225.656 -8440.159 15228.366 -8384.157 C 15231.077 -8328.165 15187.885 -8280.567 15131.892 -8277.857 L 15122.208 -8277.369 C 15120.391 -8277.258 15118.564 -8277.207 15116.768 -8277.207 Z " fill="rgb(0,0,0)"/></g><g><path d=" M 14911.301 -4627.235 C 14030.833 -4627.235 13314.515 -5343.553 13314.515 -6224.031 C 13314.515 -7104.5 14030.833 -7820.818 14911.301 -7820.818 C 14967.365 -7820.818 15012.81 -7775.372 15012.81 -7719.309 C 15012.81 -7663.246 14967.365 -7617.8 14911.301 -7617.8 C 14142.777 -7617.8 13517.533 -6992.556 13517.533 -6224.031 C 13517.533 -5455.507 14142.777 -4830.253 14911.301 -4830.253 C 14967.365 -4830.253 15012.81 -4784.807 15012.81 -4728.744 C 15012.81 -4672.691 14967.365 -4627.235 14911.301 -4627.235 Z " fill="rgb(0,0,0)"/></g><g><path d=" M 15933.875 -4943.697 C 15897.994 -4937.447 15859.929 -4950.774 15836.089 -4981.572 C 15801.782 -5025.909 15809.894 -5089.66 15854.229 -5123.977 C 16264.382 -5441.478 16463.926 -5955.837 16374.997 -6466.343 C 16319.433 -6785.311 16175.396 -7049.902 15930.28 -7268.469 C 15824.982 -7362.362 15979.805 -7500.898 16103.456 -7383.256 C 16352.739 -7146.099 16515.793 -6841.083 16575.003 -6501.183 C 16676.88 -5916.346 16448.308 -5327.122 15978.504 -4963.434 C 15964.985 -4952.97 15949.636 -4946.443 15933.875 -4943.697 Z " fill="rgb(0,0,0)"/></g><g><path d=" M 14962.066 -5221.942 C 14799.713 -5221.942 14637.694 -5262.505 14493.542 -5339.256 C 14166.906 -5513.151 13964 -5851.236 13964 -6221.572 C 13964 -6340.134 13984.951 -6456.605 14026.266 -6567.758 C 14045.806 -6620.299 14104.235 -6647.067 14156.786 -6627.536 C 14209.337 -6608.006 14236.095 -6549.567 14216.564 -6497.026 C 14183.686 -6408.582 14167.018 -6315.914 14167.018 -6221.582 C 14167.018 -5926.434 14328.691 -5657.019 14588.95 -5518.47 C 14703.848 -5457.301 14832.876 -5424.97 14962.077 -5424.97 C 15257.224 -5424.97 15526.639 -5586.643 15665.188 -5846.892 C 15726.368 -5961.8 15758.708 -6090.828 15758.708 -6220.029 C 15758.708 -6515.166 15597.025 -6784.581 15336.777 -6923.141 C 15221.848 -6984.31 15287.981 -7179.105 15432.175 -7102.355 C 15758.81 -6928.46 15961.726 -6590.374 15961.726 -6220.039 C 15961.726 -6057.685 15921.143 -5895.667 15844.392 -5751.504 C 15670.487 -5424.848 15332.411 -5221.942 14962.066 -5221.942 Z " fill="rgb(0,0,0)"/></g></g></g></g></g></g></svg>