<?xml version="1.0" encoding="UTF-8" standalone="no"?><!-- Generator: Gravit.io --><svg xmlns="http://www.w3.org/2000/svg" xmlns:xlink="http://www.w3.org/1999/xlink" style="isolation:isolate" viewBox="8150.277 -8480.758 13673.254 7963.516" width="13673.254pt" height="7963.516pt"><defs><clipPath id="_clipPath_sT62fP7jtvSfxvLxtlVXkWbdEG3GWOcs"><rect x="8150.277" y="-8480.758" width="13673.254" height="7963.516"/></clipPath></defs><g clip-path="url(#_clipPath_sT62fP7jtvSfxvLxtlVXkWbdEG3GWOcs)"><g><g><g><g><g><path d=" M 14789.872 -3952.341 C 14733.462 -3955.698 14676.519 -3961.212 14620.621 -3968.728 C 14565.055 -3976.194 14526.068 -4027.294 14533.544 -4082.859 C 14541.02 -4138.425 14592.096 -4177.342 14647.675 -4169.936 C 14698.62 -4163.08 14750.528 -4158.059 14801.943 -4154.999 C 15499.851 -4113.465 16168.941 -4420.343 16591.774 -4975.882 C 16695.411 -5112.051 16781.181 -5258.778 16847.988 -5413.113 C 16943.864 -5634.6 17000.685 -5871.753 17015.212 -6115.849 C 17043.161 -6585.482 16910.911 -7055.476 16642.809 -7439.259 C 16610.706 -7485.221 16621.946 -7548.504 16667.908 -7580.607 C 16713.87 -7612.711 16777.153 -7601.47 16809.237 -7555.52 C 17103.407 -7134.421 17248.533 -6618.847 17217.88 -6103.778 C 17190.829 -5649.223 17030.188 -5216.692 16753.331 -4852.925 C 16289.419 -4243.455 15555.428 -3906.78 14789.872 -3952.341 Z " fill="rgb(0,0,0)"/><path d=" M 14301.164 -4075.254 C 14291.003 -4075.254 14280.669 -4076.787 14270.478 -4080.025 L 14260.367 -4083.253 C 14207.004 -4100.439 14177.678 -4157.629 14194.864 -4210.992 C 14212.049 -4264.355 14269.26 -4293.681 14322.603 -4276.496 L 14331.809 -4273.552 C 14385.254 -4256.621 14414.844 -4199.562 14397.912 -4146.118 C 14384.198 -4102.875 14344.234 -4075.254 14301.164 -4075.254 Z " fill="rgb(0,0,0)"/><path d=" M 13913.691 -4225.734 C 13895.816 -4225.734 13877.717 -4230.465 13861.292 -4240.372 C 13829.703 -4259.455 13798.154 -4279.554 13767.529 -4300.13 C 13504.622 -4476.586 13285.515 -4701.898 13118.925 -4959.699 C 12882.544 -5325.501 12751.901 -5756.714 12751.901 -6206.579 C 12751.901 -6661.939 12886.573 -7103.259 13141.34 -7482.841 C 13440.386 -7928.384 13888.334 -8256.339 14402.68 -8406.299 C 14456.49 -8422.012 14512.848 -8391.082 14528.541 -8337.262 C 14544.234 -8283.442 14513.325 -8227.085 14459.505 -8211.401 C 13990.757 -8074.74 13582.488 -7775.816 13309.916 -7369.699 C 13077.684 -7023.706 12954.929 -6621.508 12954.929 -6206.59 C 12954.929 -5507.457 13301.004 -4857.769 13880.691 -4468.696 C 13908.646 -4449.917 13937.444 -4431.574 13966.283 -4414.155 C 14014.266 -4385.164 14029.665 -4322.766 14000.684 -4274.783 C 13981.601 -4243.194 13948.062 -4225.734 13913.691 -4225.734 Z " fill="rgb(0,0,0)"/><path d=" M 14793.068 -8277.207 C 14739.461 -8277.207 14694.645 -8319.201 14691.783 -8373.367 C 14688.819 -8429.349 14731.808 -8477.129 14787.79 -8480.093 L 14798.367 -8480.631 C 14854.309 -8483.412 14901.957 -8440.159 14904.667 -8384.157 C 14907.378 -8328.165 14864.185 -8280.567 14808.193 -8277.857 L 14798.509 -8277.369 C 14796.692 -8277.258 14794.865 -8277.207 14793.068 -8277.207 Z " fill="rgb(0,0,0)"/><path d=" M 14371.908 -6718.905 C 14318.301 -6718.905 14273.485 -6760.9 14270.622 -6815.065 C 14267.658 -6871.047 14310.647 -6918.827 14366.629 -6921.791 L 14377.206 -6922.329 C 14433.148 -6925.111 14480.796 -6881.858 14483.507 -6825.855 C 14486.217 -6769.863 14443.025 -6722.265 14387.033 -6719.555 L 14377.349 -6719.068 C 14375.531 -6718.956 14373.704 -6718.905 14371.908 -6718.905 Z " fill="rgb(0,0,0)"/><path d=" M 15116.768 -8277.207 C 15063.161 -8277.207 15018.344 -8319.201 15015.482 -8373.367 C 15012.518 -8429.349 15055.507 -8477.129 15111.489 -8480.093 L 15122.066 -8480.631 C 15178.008 -8483.412 15225.656 -8440.159 15228.366 -8384.157 C 15231.077 -8328.165 15187.885 -8280.567 15131.892 -8277.857 L 15122.208 -8277.369 C 15120.391 -8277.258 15118.564 -8277.207 15116.768 -8277.207 Z " fill="rgb(0,0,0)"/></g><g><path d=" M 15045.79 -4607.773 C 14165.322 -4607.773 13449.004 -5324.091 13449.004 -6204.57 C 13449.004 -7085.038 14165.322 -7801.356 15045.79 -7801.356 C 15101.853 -7801.356 15147.299 -7755.91 15147.299 -7699.847 C 15147.299 -7643.784 15101.853 -7598.338 15045.79 -7598.338 C 14277.266 -7598.338 13652.022 -6973.094 13652.022 -6204.57 C 13652.022 -5436.045 14277.266 -4810.791 15045.79 -4810.791 C 15101.853 -4810.791 15147.299 -4765.345 15147.299 -4709.282 C 15147.299 -4653.229 15101.853 -4607.773 15045.79 -4607.773 Z " fill="rgb(0,0,0)"/></g><g><path d=" M 16035.364 -4924.235 C 15999.483 -4917.985 15961.418 -4931.312 15937.578 -4962.11 C 15903.271 -5006.447 15911.383 -5070.198 15955.718 -5104.515 C 16365.871 -5422.017 16565.415 -5936.376 16476.486 -6446.881 C 16420.922 -6765.849 16276.886 -7030.44 16031.769 -7249.007 C 15926.471 -7342.901 16081.294 -7481.436 16204.944 -7363.794 C 16454.228 -7126.637 16617.282 -6821.622 16676.492 -6481.721 C 16778.369 -5896.884 16549.797 -5307.66 16079.993 -4943.972 C 16066.474 -4933.508 16051.125 -4926.981 16035.364 -4924.235 Z " fill="rgb(0,0,0)"/></g><g><path d=" M 15045.019 -5205.722 C 14882.665 -5205.722 14720.647 -5246.285 14576.494 -5323.036 C 14249.858 -5496.931 14046.952 -5835.016 14046.952 -6205.351 C 14046.952 -6323.914 14067.904 -6440.385 14109.218 -6551.537 C 14128.758 -6604.078 14187.187 -6630.846 14239.738 -6611.316 C 14292.289 -6591.786 14319.047 -6533.347 14299.517 -6480.806 C 14266.638 -6392.361 14249.97 -6299.694 14249.97 -6205.361 C 14249.97 -5910.214 14411.643 -5640.799 14671.902 -5502.25 C 14786.8 -5441.08 14915.828 -5408.75 15045.029 -5408.75 C 15340.176 -5408.75 15609.591 -5570.423 15748.141 -5830.672 C 15809.32 -5945.58 15841.661 -6074.608 15841.661 -6203.808 C 15841.661 -6498.946 15679.977 -6768.36 15419.729 -6906.92 C 15304.8 -6968.089 15370.933 -7162.885 15515.127 -7086.134 C 15841.762 -6912.239 16044.679 -6574.154 16044.679 -6203.818 C 16044.679 -6041.465 16004.095 -5879.447 15927.344 -5735.284 C 15753.439 -5408.628 15415.364 -5205.722 15045.019 -5205.722 Z " fill="rgb(0,0,0)"/></g></g></g></g></g><text transform="matrix(10.151,0,0,10.151,8150.277,-1243.031)" style="font-family:'IBM Plex Sans';font-weight:400;font-size:260px;font-style:normal;fill:#000000;stroke:none;">Metrix Labs</text></g></svg>